<?xml version="1.0" encoding="UTF-8" standalone="no"?><svg xmlns="http://www.w3.org/2000/svg" xmlns:xlink="http://www.w3.org/1999/xlink" contentScriptType="application/ecmascript" contentStyleType="text/css" height="503px" preserveAspectRatio="none" style="width:634px;height:503px;" version="1.1" viewBox="0 0 634 503" width="634px" zoomAndPan="magnify"><defs><filter height="300%" id="fd6uhio" width="300%" x="-1" y="-1"><feGaussianBlur result="blurOut" stdDeviation="2.0"/><feColorMatrix in="blurOut" result="blurOut2" type="matrix" values="0 0 0 0 0 0 0 0 0 0 0 0 0 0 0 0 0 0 .4 0"/><feOffset dx="4.0" dy="4.0" in="blurOut2" result="blurOut3"/><feBlend in="SourceGraphic" in2="blurOut3" mode="normal"/></filter></defs><g><rect fill="#FFFFFF" filter="url(#fd6uhio)" height="337.8672" style="stroke: #A80036; stroke-width: 1.0;" width="10" x="224" y="89.2188"/><rect fill="#FFFFFF" filter="url(#fd6uhio)" height="46.3516" style="stroke: #A80036; stroke-width: 1.0;" width="10" x="438" y="119.5703"/><rect fill="#FFFFFF" filter="url(#fd6uhio)" height="30.3516" style="stroke: #A80036; stroke-width: 1.0;" width="10" x="506.5" y="343.3828"/><rect fill="#FFFFFF" filter="url(#fd6uhio)" height="30.3516" style="stroke: #A80036; stroke-width: 1.0;" width="10" x="586" y="196.625"/><rect fill="#FFFFFF" filter="url(#fd6uhio)" height="30.3516" style="stroke: #A80036; stroke-width: 1.0;" width="10" x="586" y="257.3281"/><rect fill="#FFFFFF" filter="url(#fd6uhio)" height="79.0547" style="stroke: #000000; stroke-width: 2.0;" width="370" x="183" y="303.0313"/><line style="stroke: #A80036; stroke-width: 1.0; stroke-dasharray: 5.0,5.0;" x1="229" x2="229" y1="57.2188" y2="445.7891"/><line style="stroke: #A80036; stroke-width: 1.0; stroke-dasharray: 5.0,5.0;" x1="443" x2="443" y1="57.2188" y2="445.7891"/><line style="stroke: #A80036; stroke-width: 1.0; stroke-dasharray: 5.0,5.0;" x1="511" x2="511" y1="57.2188" y2="445.7891"/><line style="stroke: #A80036; stroke-width: 1.0; stroke-dasharray: 5.0,5.0;" x1="591" x2="591" y1="57.2188" y2="445.7891"/><rect fill="#FEFECE" filter="url(#fd6uhio)" height="49.2188" style="stroke: #A80036; stroke-width: 1.5;" width="68" x="193" y="3"/><text fill="#000000" font-family="sans-serif" font-size="14" lengthAdjust="spacingAndGlyphs" textLength="54" x="200" y="24.5332">Services</text><text fill="#000000" font-family="sans-serif" font-size="14" lengthAdjust="spacingAndGlyphs" textLength="39" x="207.5" y="42.1426">Métier</text><rect fill="#FEFECE" filter="url(#fd6uhio)" height="49.2188" style="stroke: #A80036; stroke-width: 1.5;" width="68" x="193" y="444.7891"/><text fill="#000000" font-family="sans-serif" font-size="14" lengthAdjust="spacingAndGlyphs" textLength="54" x="200" y="466.3223">Services</text><text fill="#000000" font-family="sans-serif" font-size="14" lengthAdjust="spacingAndGlyphs" textLength="39" x="207.5" y="483.9316">Métier</text><rect fill="#FEFECE" filter="url(#fd6uhio)" height="31.6094" style="stroke: #A80036; stroke-width: 1.5;" width="50" x="416" y="20.6094"/><text fill="#000000" font-family="sans-serif" font-size="14" lengthAdjust="spacingAndGlyphs" textLength="36" x="423" y="42.1426">Client</text><rect fill="#FEFECE" filter="url(#fd6uhio)" height="31.6094" style="stroke: #A80036; stroke-width: 1.5;" width="50" x="416" y="444.7891"/><text fill="#000000" font-family="sans-serif" font-size="14" lengthAdjust="spacingAndGlyphs" textLength="36" x="423" y="466.3223">Client</text><rect fill="#FEFECE" filter="url(#fd6uhio)" height="31.6094" style="stroke: #A80036; stroke-width: 1.5;" width="59" x="480" y="20.6094"/><text fill="#000000" font-family="sans-serif" font-size="14" lengthAdjust="spacingAndGlyphs" textLength="45" x="487" y="42.1426">Produit</text><rect fill="#FEFECE" filter="url(#fd6uhio)" height="31.6094" style="stroke: #A80036; stroke-width: 1.5;" width="59" x="480" y="444.7891"/><text fill="#000000" font-family="sans-serif" font-size="14" lengthAdjust="spacingAndGlyphs" textLength="45" x="487" y="466.3223">Produit</text><rect fill="#FEFECE" filter="url(#fd6uhio)" height="31.6094" style="stroke: #A80036; stroke-width: 1.5;" width="72" x="553" y="20.6094"/><text fill="#000000" font-family="sans-serif" font-size="14" lengthAdjust="spacingAndGlyphs" textLength="58" x="560" y="42.1426">Structure</text><rect fill="#FEFECE" filter="url(#fd6uhio)" height="31.6094" style="stroke: #A80036; stroke-width: 1.5;" width="72" x="553" y="444.7891"/><text fill="#000000" font-family="sans-serif" font-size="14" lengthAdjust="spacingAndGlyphs" textLength="58" x="560" y="466.3223">Structure</text><rect fill="#FFFFFF" filter="url(#fd6uhio)" height="337.8672" style="stroke: #A80036; stroke-width: 1.0;" width="10" x="224" y="89.2188"/><rect fill="#FFFFFF" filter="url(#fd6uhio)" height="46.3516" style="stroke: #A80036; stroke-width: 1.0;" width="10" x="438" y="119.5703"/><rect fill="#FFFFFF" filter="url(#fd6uhio)" height="30.3516" style="stroke: #A80036; stroke-width: 1.0;" width="10" x="506.5" y="343.3828"/><rect fill="#FFFFFF" filter="url(#fd6uhio)" height="30.3516" style="stroke: #A80036; stroke-width: 1.0;" width="10" x="586" y="196.625"/><rect fill="#FFFFFF" filter="url(#fd6uhio)" height="30.3516" style="stroke: #A80036; stroke-width: 1.0;" width="10" x="586" y="257.3281"/><polygon fill="#A80036" points="212,85.2188,222,89.2188,212,93.2188,216,89.2188" style="stroke: #A80036; stroke-width: 1.0;"/><line style="stroke: #A80036; stroke-width: 1.0;" x1="3" x2="218" y1="89.2188" y2="89.2188"/><text fill="#000000" font-family="sans-serif" font-size="13" lengthAdjust="spacingAndGlyphs" textLength="202" x="10" y="84.7139">SMA004: getDossierClient(clientId)</text><polygon fill="#A80036" points="426,115.5703,436,119.5703,426,123.5703,430,119.5703" style="stroke: #A80036; stroke-width: 1.0;"/><line style="stroke: #A80036; stroke-width: 1.0;" x1="234" x2="432" y1="119.5703" y2="119.5703"/><text fill="#000000" font-family="sans-serif" font-size="13" lengthAdjust="spacingAndGlyphs" textLength="185" x="241" y="115.0654">SOM001: getClientById(clientId)</text><line style="stroke: #A80036; stroke-width: 1.0;" x1="234" x2="244" y1="165.9219" y2="161.9219"/><line style="stroke: #A80036; stroke-width: 1.0;" x1="234" x2="244" y1="165.9219" y2="169.9219"/><line style="stroke: #A80036; stroke-width: 1.0; stroke-dasharray: 2.0,2.0;" x1="234" x2="442" y1="165.9219" y2="165.9219"/><text fill="#000000" font-family="sans-serif" font-size="13" lengthAdjust="spacingAndGlyphs" textLength="138" x="251" y="145.417">Client, List&lt;segmentId&gt;</text><text fill="#000000" font-family="sans-serif" font-size="13" lengthAdjust="spacingAndGlyphs" textLength="132" x="251" y="161.7686">portefeuilleId, agenceId</text><polygon fill="#A80036" points="574,192.625,584,196.625,574,200.625,578,196.625" style="stroke: #A80036; stroke-width: 1.0;"/><line style="stroke: #A80036; stroke-width: 1.0;" x1="234" x2="580" y1="196.625" y2="196.625"/><text fill="#000000" font-family="sans-serif" font-size="13" lengthAdjust="spacingAndGlyphs" textLength="277" x="241" y="192.1201">SOM007: getConseillerByWalletId(portefeuilleId)</text><line style="stroke: #A80036; stroke-width: 1.0;" x1="234" x2="244" y1="226.9766" y2="222.9766"/><line style="stroke: #A80036; stroke-width: 1.0;" x1="234" x2="244" y1="226.9766" y2="230.9766"/><line style="stroke: #A80036; stroke-width: 1.0; stroke-dasharray: 2.0,2.0;" x1="234" x2="590" y1="226.9766" y2="226.9766"/><text fill="#000000" font-family="sans-serif" font-size="13" lengthAdjust="spacingAndGlyphs" textLength="57" x="251" y="222.4717">Conseiller</text><polygon fill="#A80036" points="574,253.3281,584,257.3281,574,261.3281,578,257.3281" style="stroke: #A80036; stroke-width: 1.0;"/><line style="stroke: #A80036; stroke-width: 1.0;" x1="234" x2="580" y1="257.3281" y2="257.3281"/><text fill="#000000" font-family="sans-serif" font-size="13" lengthAdjust="spacingAndGlyphs" textLength="207" x="241" y="252.8232">SOM006: getAgenceById(agenceId)</text><line style="stroke: #A80036; stroke-width: 1.0;" x1="234" x2="244" y1="287.6797" y2="283.6797"/><line style="stroke: #A80036; stroke-width: 1.0;" x1="234" x2="244" y1="287.6797" y2="291.6797"/><line style="stroke: #A80036; stroke-width: 1.0; stroke-dasharray: 2.0,2.0;" x1="234" x2="590" y1="287.6797" y2="287.6797"/><text fill="#000000" font-family="sans-serif" font-size="13" lengthAdjust="spacingAndGlyphs" textLength="44" x="251" y="283.1748">Agence</text><rect fill="none" height="79.0547" style="stroke: #000000; stroke-width: 2.0;" width="370" x="183" y="303.0313"/><polygon fill="#EEEEEE" points="183,303.0313,350,303.0313,350,311.0313,340,321.0313,183,321.0313,183,303.0313" style="stroke: #000000; stroke-width: 2.0;"/><text fill="#000000" font-family="sans-serif" font-size="13" font-weight="bold" lengthAdjust="spacingAndGlyphs" textLength="122" x="198" y="317.5264">for each segmentId</text><polygon fill="#A80036" points="494.5,339.3828,504.5,343.3828,494.5,347.3828,498.5,343.3828" style="stroke: #A80036; stroke-width: 1.0;"/><line style="stroke: #A80036; stroke-width: 1.0;" x1="234" x2="500.5" y1="343.3828" y2="343.3828"/><text fill="#000000" font-family="sans-serif" font-size="13" lengthAdjust="spacingAndGlyphs" textLength="223" x="241" y="338.8779">SOM009: getSegmentById(segmentId)</text><line style="stroke: #A80036; stroke-width: 1.0;" x1="234" x2="244" y1="373.7344" y2="369.7344"/><line style="stroke: #A80036; stroke-width: 1.0;" x1="234" x2="244" y1="373.7344" y2="377.7344"/><line style="stroke: #A80036; stroke-width: 1.0; stroke-dasharray: 2.0,2.0;" x1="234" x2="510.5" y1="373.7344" y2="373.7344"/><text fill="#000000" font-family="sans-serif" font-size="13" lengthAdjust="spacingAndGlyphs" textLength="52" x="251" y="369.2295">Segment</text><line style="stroke: #A80036; stroke-width: 1.0;" x1="3" x2="13" y1="427.0859" y2="423.0859"/><line style="stroke: #A80036; stroke-width: 1.0;" x1="3" x2="13" y1="427.0859" y2="431.0859"/><line style="stroke: #A80036; stroke-width: 1.0; stroke-dasharray: 2.0,2.0;" x1="3" x2="228" y1="427.0859" y2="427.0859"/><text fill="#000000" font-family="sans-serif" font-size="13" lengthAdjust="spacingAndGlyphs" textLength="130" x="20" y="406.5811">Client, List&lt;Segment&gt;</text><text fill="#000000" font-family="sans-serif" font-size="13" lengthAdjust="spacingAndGlyphs" textLength="109" x="20" y="422.9326">Conseiller, Agence</text></g></svg>