<?xml version="1.0" encoding="UTF-8" standalone="no"?><svg xmlns="http://www.w3.org/2000/svg" xmlns:xlink="http://www.w3.org/1999/xlink" contentScriptType="application/ecmascript" contentStyleType="text/css" height="300px" preserveAspectRatio="none" style="width:498px;height:300px;" version="1.1" viewBox="0 0 498 300" width="498px" zoomAndPan="magnify"><defs><filter height="300%" id="fwsylor" width="300%" x="-1" y="-1"><feGaussianBlur result="blurOut" stdDeviation="2.0"/><feColorMatrix in="blurOut" result="blurOut2" type="matrix" values="0 0 0 0 0 0 0 0 0 0 0 0 0 0 0 0 0 0 .4 0"/><feOffset dx="4.0" dy="4.0" in="blurOut2" result="blurOut3"/><feBlend in="SourceGraphic" in2="blurOut3" mode="normal"/></filter></defs><g><rect fill="#FFFFFF" filter="url(#fwsylor)" height="46.3516" style="stroke: #A80036; stroke-width: 1.0;" width="10" x="452" y="149.9609"/><line style="stroke: #A80036; stroke-width: 1.0; stroke-dasharray: 5.0,5.0;" x1="42" x2="42" y1="87.6094" y2="215.0156"/><line style="stroke: #A80036; stroke-width: 1.0; stroke-dasharray: 5.0,5.0;" x1="197.5" x2="197.5" y1="87.6094" y2="215.0156"/><line style="stroke: #A80036; stroke-width: 1.0; stroke-dasharray: 5.0,5.0;" x1="457" x2="457" y1="87.6094" y2="215.0156"/><text fill="#000000" font-family="sans-serif" font-size="14" lengthAdjust="spacingAndGlyphs" textLength="62" x="8" y="84.5332">Utilisateur</text><ellipse cx="42" cy="13" fill="#FEFECE" filter="url(#fwsylor)" rx="8" ry="8" style="stroke: #A80036; stroke-width: 2.0;"/><path d="M42,21 L42,48 M29,29 L55,29 M42,48 L29,63 M42,48 L55,63 " fill="#FEFECE" filter="url(#fwsylor)" style="stroke: #A80036; stroke-width: 2.0;"/><text fill="#000000" font-family="sans-serif" font-size="14" lengthAdjust="spacingAndGlyphs" textLength="62" x="8" y="228.5488">Utilisateur</text><ellipse cx="42" cy="241.625" fill="#FEFECE" filter="url(#fwsylor)" rx="8" ry="8" style="stroke: #A80036; stroke-width: 2.0;"/><path d="M42,249.625 L42,276.625 M29,257.625 L55,257.625 M42,276.625 L29,291.625 M42,276.625 L55,291.625 " fill="#FEFECE" filter="url(#fwsylor)" style="stroke: #A80036; stroke-width: 2.0;"/><rect fill="#FEFECE" filter="url(#fwsylor)" height="31.6094" style="stroke: #A80036; stroke-width: 1.5;" width="69" x="161.5" y="51"/><text fill="#000000" font-family="sans-serif" font-size="14" lengthAdjust="spacingAndGlyphs" textLength="55" x="168.5" y="72.5332">Interface</text><rect fill="#FEFECE" filter="url(#fwsylor)" height="31.6094" style="stroke: #A80036; stroke-width: 1.5;" width="69" x="161.5" y="214.0156"/><text fill="#000000" font-family="sans-serif" font-size="14" lengthAdjust="spacingAndGlyphs" textLength="55" x="168.5" y="235.5488">Interface</text><rect fill="#FEFECE" filter="url(#fwsylor)" height="31.6094" style="stroke: #A80036; stroke-width: 1.5;" width="68" x="421" y="51"/><text fill="#000000" font-family="sans-serif" font-size="14" lengthAdjust="spacingAndGlyphs" textLength="54" x="428" y="72.5332">Système</text><rect fill="#FEFECE" filter="url(#fwsylor)" height="31.6094" style="stroke: #A80036; stroke-width: 1.5;" width="68" x="421" y="214.0156"/><text fill="#000000" font-family="sans-serif" font-size="14" lengthAdjust="spacingAndGlyphs" textLength="54" x="428" y="235.5488">Système</text><rect fill="#FFFFFF" filter="url(#fwsylor)" height="46.3516" style="stroke: #A80036; stroke-width: 1.0;" width="10" x="452" y="149.9609"/><polygon fill="#A80036" points="186,115.6094,196,119.6094,186,123.6094,190,119.6094" style="stroke: #A80036; stroke-width: 1.0;"/><line style="stroke: #A80036; stroke-width: 1.0;" x1="42" x2="192" y1="119.6094" y2="119.6094"/><text fill="#000000" font-family="sans-serif" font-size="13" lengthAdjust="spacingAndGlyphs" textLength="132" x="49" y="115.1045">ConsulterDossierClient</text><polygon fill="#A80036" points="440,145.9609,450,149.9609,440,153.9609,444,149.9609" style="stroke: #A80036; stroke-width: 1.0;"/><line style="stroke: #A80036; stroke-width: 1.0;" x1="198" x2="446" y1="149.9609" y2="149.9609"/><text fill="#000000" font-family="sans-serif" font-size="13" lengthAdjust="spacingAndGlyphs" textLength="228" x="205" y="145.4561">SM004: consulterDossierClient(clientId)</text><line style="stroke: #A80036; stroke-width: 1.0;" x1="198" x2="208" y1="196.3125" y2="192.3125"/><line style="stroke: #A80036; stroke-width: 1.0;" x1="198" x2="208" y1="196.3125" y2="200.3125"/><line style="stroke: #A80036; stroke-width: 1.0; stroke-dasharray: 2.0,2.0;" x1="198" x2="456" y1="196.3125" y2="196.3125"/><text fill="#000000" font-family="sans-serif" font-size="13" lengthAdjust="spacingAndGlyphs" textLength="230" x="215" y="175.8076">Client, List&lt;Personne&gt;, List&lt;Segment&gt;</text><text fill="#000000" font-family="sans-serif" font-size="13" lengthAdjust="spacingAndGlyphs" textLength="109" x="215" y="192.1592">Agence, Conseiller</text></g></svg>